<svg xmlns="http://www.w3.org/2000/svg" width="24.07" height="23.265" viewBox="0 0 24.07 23.265"><defs><style>.a{fill:#666;}</style></defs><path class="a" d="M20,19H0V0H9V2H2V17H18V11h2v8Z" transform="translate(0 4.265)"/><g transform="translate(14.967 0) rotate(45)"><path class="a" d="M7.459,15.611H5.416v-9.7c0-.761.018-1.438.055-2.011,0-.057.007-.112.011-.167-.075.086-.151.171-.23.255A16.491,16.491,0,0,1,3.626,5.5,23.259,23.259,0,0,1,1.553,7.006l-.225.146L0,5.543l.3-.181A25.906,25.906,0,0,0,2.763,3.67a16.569,16.569,0,0,0,1.85-1.682A17.95,17.95,0,0,0,6.138.126L6.228,0h.415l.09.123A20.886,20.886,0,0,0,8.27,1.989a15.73,15.73,0,0,0,1.848,1.68h0a28.1,28.1,0,0,0,2.462,1.694l.292.182L11.545,7.152l-.225-.146A23.3,23.3,0,0,1,9.248,5.5,16.447,16.447,0,0,1,7.623,3.984q-.118-.127-.23-.255c0,.055.007.111.011.168.036.571.055,1.247.055,2.011Z"/></g></svg>